<?xml version="1.0" encoding="UTF-8" standalone="no"?>
<!-- Created with Inkscape (http://www.inkscape.org/) -->

<svg
   width="1000"
   height="1000"
   viewBox="0 0 1000 1000"
   version="1.1"
   id="svg1"
   xml:space="preserve"
   xmlns:xlink="http://www.w3.org/1999/xlink"
   xmlns="http://www.w3.org/2000/svg"
   xmlns:svg="http://www.w3.org/2000/svg"
   xmlns:rdf="http://www.w3.org/1999/02/22-rdf-syntax-ns#"
   xmlns:cc="http://creativecommons.org/ns#"
   xmlns:dc="http://purl.org/dc/elements/1.1/"><title
     id="title1">A.J Logo</title><defs
     id="defs1"><linearGradient
       id="linearGradient29"><stop
         style="stop-color:#b8bb26;stop-opacity:1;"
         offset="0"
         id="stop29" /><stop
         style="stop-color:#8ec07c;stop-opacity:1;"
         offset="1"
         id="stop30" /></linearGradient><linearGradient
       id="linearGradient26"><stop
         style="stop-color:#0f0f0f;stop-opacity:1;"
         offset="0"
         id="stop27" /><stop
         style="stop-color:#1d2021;stop-opacity:1;"
         offset="1"
         id="stop28" /></linearGradient><linearGradient
       id="linearGradient23"><stop
         style="stop-color:#121212;stop-opacity:1;"
         offset="0"
         id="stop23" /><stop
         style="stop-color:#1d2021;stop-opacity:1;"
         offset="0.36977598"
         id="stop26" /><stop
         style="stop-color:#32302f;stop-opacity:1;"
         offset="1"
         id="stop24" /></linearGradient><linearGradient
       xlink:href="#linearGradient23"
       id="linearGradient24"
       x1="595.27985"
       y1="602.17511"
       x2="404.72006"
       y2="397.82471"
       gradientUnits="userSpaceOnUse" /><linearGradient
       xlink:href="#linearGradient26"
       id="linearGradient28"
       x1="568.50952"
       y1="571.19739"
       x2="568.50952"
       y2="428.8027"
       gradientUnits="userSpaceOnUse" /><linearGradient
       xlink:href="#linearGradient29"
       id="linearGradient36"
       x1="416.168"
       y1="778.05518"
       x2="585.49023"
       y2="778.05518"
       gradientUnits="userSpaceOnUse" /></defs><g
     id="layer1"><g
       id="g19"><path
         d="M 500,50.710937 360.29297,111.04883 V 888.95117 L 500,949.28906 639.70703,888.95117 V 111.04883 Z m 6.96837,671.083263 71.7742,64.92454 a 9.0601852,9.0601852 97.299056 0 1 -1.88968,14.75315 l -66.42257,34.62653 a 25.650638,25.650638 179.37888 0 1 -23.21887,0.25171 l -62.14946,-30.70416 a 9.505377,9.505377 80.159819 0 1 -2.62407,-15.12849 l 65.82533,-68.09623 a 13.458592,13.458592 178.07999 0 1 18.70512,-0.62705 z"
         style="fill:url(#linearGradient24);fill-opacity:1;stroke-width:1.89163;paint-order:fill markers stroke"
         id="path7" /><path
         style="fill:url(#linearGradient28);fill-opacity:1;stroke-width:1.89163;paint-order:fill markers stroke"
         d="m 500,50.710692 139.70678,60.338558 v 777.9015 L 500,949.28931 498.88399,842.11627 588.39768,795.45369 497.31229,713.05952 Z"
         id="path2" /><path
         style="fill:#747474;fill-opacity:0.404389;stroke-width:1.354;paint-order:fill markers stroke"
         d="m 500,50.710692 139.70678,60.338558 -140.60079,162.769 z"
         id="path3" /><path
         style="fill:#575757;fill-opacity:0.363538;stroke-width:1.354;paint-order:fill markers stroke"
         d="M 639.70678,111.04925 V 285.63312 L 500,50.710692 Z"
         id="path4" /><path
         style="fill:#747474;fill-opacity:0.168106;stroke-width:1.354;paint-order:fill markers stroke"
         d="M 500,50.710692 639.70678,111.04925 V 665.44722 L 498.12948,517.51665 Z"
         id="path5" /><path
         id="path19"
         style="fill:url(#linearGradient36);fill-opacity:1;stroke-width:1.35399;paint-order:fill markers stroke"
         d="m 497.79874,715.35363 a 5.8619495,5.8619495 0 0 0 -4.42761,1.78464 l -76.04021,78.66376 a 4.1401097,4.1401097 0 0 0 1.1438,6.58897 l 75.32558,37.21324 a 11.172248,11.172248 0 0 0 10.11358,-0.10875 l 79.45413,-41.4214 a 3.9462043,3.9462043 0 0 0 0.82337,-6.42585 l -82.67385,-74.78378 a 5.8619495,5.8619495 0 0 0 -3.71879,-1.51083 z m 0.95543,18.14735 a 5.0243248,5.0243248 0 0 1 3.18865,1.29527 l 57.80159,52.28457 a 3.3823238,3.3823238 0 0 1 -0.70686,5.50731 l -55.26737,28.81244 a 9.5758263,9.5758263 0 0 1 -8.66879,0.0932 l -56.66362,-27.99294 56.52186,-58.47156 a 5.0243248,5.0243248 0 0 1 3.79454,-1.5283 z"
         transform="matrix(1.0057641,0,0,1.0057641,-2.8868473,-4.4848154)" /></g></g><metadata
     id="metadata1"><rdf:RDF><cc:Work
         rdf:about=""><dc:title>A.J Logo</dc:title><dc:date>2026/4</dc:date><dc:creator><cc:Agent><dc:title>Sultan Majed</dc:title></cc:Agent></dc:creator><dc:language>Arabic, English</dc:language><dc:subject><rdf:Bag><rdf:li>Logo</rdf:li><rdf:li>Personal Brand</rdf:li></rdf:Bag></dc:subject></cc:Work></rdf:RDF></metadata></svg>
